<svg id="Layer_1" data-name="Layer 1" xmlns="http://www.w3.org/2000/svg" viewBox="0 0 185.164 292.108">
  <defs>
    <style>
      .cls-1 {
        fill: #e74f3d;
      }
    </style>
  </defs>
  <path class="cls-1" d="M306.51,328.814a39.69,39.69,0,1,0-39.689-39.689,39.69,39.69,0,0,0,39.689,39.689" transform="translate(-213.458 -249.434)"/>
  <path class="cls-1" d="M394.235,291.269a11.644,11.644,0,0,0-15.8,2.257c-.322.322-20.5,24.087-21.144,24.409-8.062,9.026-18.376,20.31-35.784,20.31H289.6c-15.152,0-23.532-9.026-31.269-17.731-1.612-1.933-25.409-34.75-25.731-35.071-3.87-4.836-10.961-5.16-15.8-1.291s-4.013,10.96-.145,15.8c.644.968,23.3,34.108,24.91,35.719,6.769,7.736,16.118,18.052,31.592,22.566-6.771,16.44-6.771,66.084-3.548,79.624,2.257,9.671,5.8,31.268,5.481,46.1-3.224,6.125-11.225,15.125-29.277,28.342A14.541,14.541,0,1,0,262.9,535.83c.322-.322,1.876-1.264,13.481-11.259,19.02-16.761,27.08-28.045,27.4-38.36.322-13.539-1.611-29.658-3.546-41.584,13.539,10.958,26.65,35.711,27.294,42.48l-.216.715c-3.224,6.125-10.906,14.158-28.959,27.375a14.541,14.541,0,1,0,17.086,23.533c.322-.322,1.875-1.264,13.481-11.258,19.02-16.762,27.406-30.3,27.728-40.617h0c0-12.644-14.506-40.3-28.691-56.091.968-18.7,2.9-57.382,7.092-71.243,19.342-4.513,31.27-17.73,39.006-26.112.646-.644,21.792-25.377,22.435-26.344,3.547-4.836,2.581-12.25-2.255-15.8" transform="translate(-213.458 -249.434)"/>
</svg>
